<?xml version="1.0" encoding="UTF-8" standalone="no"?>
<!DOCTYPE svg PUBLIC "-//W3C//DTD SVG 1.1//EN" "http://www.w3.org/Graphics/SVG/1.1/DTD/svg11.dtd">
<!-- Created with Vectornator (http://vectornator.io/) -->
<svg height="100%" stroke-miterlimit="10" style="fill-rule:nonzero;clip-rule:evenodd;stroke-linecap:round;stroke-linejoin:round;" version="1.1" viewBox="108.729 2.45093 7.12817 9.05316" width="100%" xml:space="preserve" xmlns="http://www.w3.org/2000/svg" xmlns:vectornator="http://vectornator.io" xmlns:xlink="http://www.w3.org/1999/xlink">
<defs/>
<clipPath id="ArtboardFrame">
<rect height="9.05316" width="7.12817" x="108.729" y="2.45093"/>
</clipPath>
<g clip-path="url(#ArtboardFrame)" id="Layer" vectornator:layerName="Layer">
<g opacity="1" vectornator:layerName="Group 26">
<path d="M112.293 2.45093C112.293 2.45093 110.182 2.53014 109.454 2.59388C109.215 2.6137 109.095 2.69154 109.006 2.83212C109.006 2.83212 108.972 2.91087 108.968 2.99412C108.922 3.7507 108.748 7.50164 108.748 7.50164C108.815 7.64466 109.091 7.74941 109.091 7.74941C109.56 7.89639 109.797 8.26401 109.797 8.26401C109.821 8.29695 110.521 9.36945 110.521 9.36945C110.521 9.36945 110.636 9.54944 110.883 9.64581C111.13 9.74278 111.588 9.73157 111.588 9.73157L112.293 9.73157L113.008 9.73157C113.724 9.73158 113.959 9.56431 114.085 9.36945C114.211 9.1752 114.655 8.48449 114.8 8.26401C114.944 8.04445 115.188 7.87505 115.514 7.74941C115.841 7.62377 115.857 7.50164 115.857 7.50164C115.857 7.50164 115.706 3.01379 115.638 2.89882C115.532 2.71372 115.368 2.63382 115.162 2.59388C114.827 2.52526 112.293 2.45093 112.293 2.45093ZM113.151 2.88929C114.292 2.91117 115.162 2.956 115.162 2.956L115.162 3.61355C111.675 3.40801 109.492 3.61355 109.492 3.61355L109.492 2.96553C110.596 2.86734 112.01 2.86741 113.151 2.88929ZM111.493 3.76602C112.565 3.73804 113.908 3.73941 115.19 3.85179C115.19 3.85179 115.367 3.85164 115.438 3.9852L115.581 7.51117L109.168 7.51117L109.044 7.51117L109.215 4.04238C109.215 4.04238 109.223 3.86368 109.454 3.85179C109.622 3.84493 110.421 3.794 111.493 3.76602Z" fill="#ffffff" fill-rule="nonzero" opacity="1" stroke="none" vectornator:layerName="Curve 1"/>
<path d="M108.729 7.72082L108.729 10.1223C108.729 10.5334 109.234 10.5511 109.234 10.5511L109.301 10.5607L109.301 11.3135C109.301 11.3135 109.348 11.5041 109.539 11.5041L110.311 11.5041C110.311 11.5041 110.51 11.4689 110.53 11.304L110.53 10.6464L110.597 10.6559L112.303 10.6845L113.999 10.6464L114.075 10.6369L114.075 10.6559L114.075 11.304C114.075 11.304 114.121 11.4946 114.314 11.4946L115.086 11.4946C115.086 11.4946 115.275 11.4588 115.295 11.2944L115.295 10.5702L115.295 10.5607L115.295 10.5511L115.362 10.5511C115.864 10.5481 115.857 10.1318 115.857 10.1318L115.857 7.72082C115.818 7.76778 115.737 7.84189 115.553 7.91141C115.226 8.03827 114.991 8.20675 114.847 8.42601C114.702 8.64619 114.257 9.32828 114.133 9.52192C114.006 9.71739 113.771 9.89358 113.056 9.89358L112.389 9.89358L112.341 9.89358L112.303 9.89358L111.541 9.90311C110.633 9.92202 110.464 9.52192 110.464 9.52192C110.464 9.52192 109.921 8.67447 109.758 8.41648C109.596 8.1585 109.22 7.95838 109.044 7.91141C108.868 7.86506 108.729 7.72082 108.729 7.72082ZM108.815 8.77861C108.885 8.87985 109.454 8.9692 109.454 8.9692C109.9 9.04422 110.168 9.64581 110.168 9.64581C108.736 9.6394 108.815 8.77861 108.815 8.77861ZM115.791 8.77861C115.791 8.77861 115.87 9.6394 114.438 9.64581C114.438 9.64581 114.697 9.04422 115.143 8.9692C115.143 8.9692 115.723 8.87985 115.791 8.77861Z" fill="#ffffff" fill-rule="nonzero" opacity="1" stroke="none" vectornator:layerName="Curve 2"/>
</g>
</g>
</svg>
